<?xml version="1.0" encoding="utf-8"?>
<!-- Generator: Adobe Illustrator 27.0.1, SVG Export Plug-In . SVG Version: 6.00 Build 0)  -->
<svg version="1.1" id="Capa_1" xmlns="http://www.w3.org/2000/svg" xmlns:xlink="http://www.w3.org/1999/xlink" x="0px" y="0px"
	 viewBox="0 0 151.5 107.5" style="enable-background:new 0 0 151.5 107.5;" xml:space="preserve">
<style type="text/css">
	.st0{fill:#013449;}
</style>
<path class="st0" d="M21.8,20.4l8.2-17l8.1,17l4-9l9.1,4l-12.6,29L30,26.6l-8.6,17.8l-12.7-29l9.1-4L21.8,20.4z"/>
<path class="st0" d="M69.2,19.4v-5h10v23.3h-10v-8.3h-6.7v8.3h-10V6h10v13.4H69.2z"/>
<path class="st0" d="M110.5,26c0,7.9-6.4,14.3-14.3,14.3c-7.9,0-14.3-6.4-14.3-14.3c0-7.9,6.4-14.3,14.3-14.3
	C104.1,11.7,110.5,18.1,110.5,26z M91.9,26c0,2.4,1.9,4.3,4.3,4.3c2.4,0,4.3-1.9,4.3-4.3c0-2.4-1.9-4.3-4.3-4.3
	C93.8,21.7,91.9,23.6,91.9,26z"/>
<path class="st0" d="M51.7,47.5c0,1.2,0.5,2.1,1.5,2.6l-0.8,1.4c-1.5-0.8-2.5-2.3-2.5-4.1c0-1.8,1-3.3,2.5-4.1l0.8,1.4
	C52.2,45.5,51.7,46.3,51.7,47.5z"/>
<path class="st0" d="M63,46.7c0.2,0,0.3,0,0.5,0v1.7c-0.2,0-0.3,0-0.5,0c-2.1,0-3.8,1.7-3.8,3.8v5c0,3-2.5,5.5-5.5,5.5
	c-0.2,0-0.3,0-0.5,0V61c0.2,0,0.3,0,0.5,0c2.1,0,3.8-1.7,3.8-3.8v-5C57.5,49.2,60,46.7,63,46.7z"/>
<path class="st0" d="M76.5,61.1l-1.2,1.2l-3.1-3.1c-0.9,0.6-1.9,1-3.1,1c-3,0-5.5-2.5-5.5-5.5s2.5-5.5,5.5-5.5c3,0,5.5,2.5,5.5,5.5
	c0,1.2-0.4,2.4-1.1,3.3L76.5,61.1z M65.2,54.7c0,2.1,1.7,3.8,3.8,3.8c2.1,0,3.8-1.7,3.8-3.8s-1.7-3.9-3.8-3.9
	C66.9,50.9,65.2,52.6,65.2,54.7z"/>
<path class="st0" d="M79.4,58.9h6.7v1.7h-8.3V44.7h1.7V58.9z"/>
<path class="st0" d="M54.3,80.6l8.2-17l8.1,17l4-9l9.1,4l-12.6,29l-8.6-17.8L54,104.6l-12.7-29l9.1-4L54.3,80.6z"/>
<path class="st0" d="M101.7,79.6v-5h10v23.3h-10v-8.3h-6.7v8.3h-10V66.2h10v13.4H101.7z"/>
<path class="st0" d="M143.1,86.2c0,7.9-6.4,14.3-14.3,14.3c-7.9,0-14.3-6.4-14.3-14.3c0-7.9,6.4-14.3,14.3-14.3
	C136.7,71.9,143.1,78.3,143.1,86.2z M124.4,86.2c0,2.4,1.9,4.3,4.3,4.3c2.4,0,4.3-1.9,4.3-4.3c0-2.4-1.9-4.3-4.3-4.3
	C126.4,81.9,124.4,83.8,124.4,86.2z"/>
</svg>
